<svg xmlns="http://www.w3.org/2000/svg" width="1200" height="1100" viewBox="0 0 1200 1100" role="img" aria-labelledby="title">
  <title id="title">Doctor-led physical therapy illustration</title>
  <defs>
    <linearGradient id="bg" x1="116" y1="120" x2="1070" y2="1010" gradientUnits="userSpaceOnUse"><stop stop-color="#F5F1FB"/><stop offset=".58" stop-color="#FAD9E8"/><stop offset="1" stop-color="#FBE7B8"/></linearGradient>
    <linearGradient id="accent" x1="220" y1="260" x2="830" y2="850" gradientUnits="userSpaceOnUse"><stop stop-color="#E04E8B"/><stop offset="1" stop-color="#8B2FB7"/></linearGradient>
  </defs>
  <rect width="1200" height="1100" fill="url(#bg)"/>
  <circle cx="955" cy="210" r="180" fill="#fff" opacity=".34"/>
  <circle cx="220" cy="855" r="260" fill="#A24BCC" opacity=".12"/>
  <path d="M166 721c62-174 196-274 363-274 219 0 403 159 480 393H215c-55 0-72-48-49-119Z" fill="#fff" opacity=".86"/>
  <path d="M617 396c0 71-48 128-108 128s-108-57-108-128 48-128 108-128 108 57 108 128Z" fill="#F8C4D9"/>
  <path d="M432 367c53-74 139-78 190-7 9-86-36-143-112-143-78 0-128 59-78 150Z" fill="#0F1B33"/>
  <path d="M409 552h199c89 0 161 72 161 161v128H248V713c0-89 72-161 161-161Z" fill="url(#accent)"/>
  <path d="M752 462c0 54 39 98 88 98s88-44 88-98-39-98-88-98-88 44-88 98Z" fill="#F2B7CE"/>
  <path d="M760 442c35-62 109-72 161-15 2-69-38-112-94-112-62 0-101 47-67 127Z" fill="#5C6480"/>
  <path d="M733 629h212c63 0 114 51 114 114v98H650v-98c0-63 51-114 114-114Z" fill="#F5C56A"/>
  <path d="M480 664h248" stroke="#fff" stroke-width="32" stroke-linecap="round" opacity=".82"/>
  <path d="M682 632c-53 56-117 85-192 88" stroke="#F5C56A" stroke-width="36" stroke-linecap="round" fill="none"/>
  <path d="M318 825h568" stroke="#0F1B33" stroke-width="18" stroke-linecap="round" opacity=".11"/>
</svg>
