<svg xmlns="http://www.w3.org/2000/svg" width="420" height="92" viewBox="0 0 420 92" role="img" aria-labelledby="title desc">
  <title id="title">DreamCare Physical Therapy, Sport and Wellness</title>
  <desc id="desc">DreamCare light brand logo</desc>
  <defs>
    <linearGradient id="mark" x1="7" y1="11" x2="78" y2="82" gradientUnits="userSpaceOnUse">
      <stop stop-color="#F8A8CB"/>
      <stop offset=".5" stop-color="#F5EFFB"/>
      <stop offset="1" stop-color="#F5C56A"/>
    </linearGradient>
  </defs>
  <g transform="translate(7 10)">
    <path d="M36 5c15.8 0 29.2 10.5 33.6 24.9C66.8 54.7 49.5 66.2 36 74 22.5 66.2 5.2 54.7 2.4 29.9 6.8 15.5 20.2 5 36 5Z" fill="rgba(255,255,255,.13)"/>
    <path d="M36 16c8.3-8.6 23.9-3 24 10.9.1 12.6-13.6 22.2-24 29.1-10.4-6.9-24.1-16.5-24-29.1C12.1 13 27.7 7.4 36 16Z" fill="url(#mark)"/>
    <path d="M36 25v21M25.5 35.5h21" stroke="#8B2FB7" stroke-width="6.2" stroke-linecap="round"/>
  </g>
  <text x="94" y="42" fill="#FFFFFF" font-family="Georgia, 'Times New Roman', serif" font-size="30" font-weight="700" letter-spacing="-.6">DreamCare</text>
  <text x="95" y="66" fill="#F5C56A" font-family="Inter, Arial, sans-serif" font-size="13" font-weight="700" letter-spacing="2.4">PHYSICAL THERAPY, SPORT &amp; WELLNESS</text>
</svg>
